<?xml version="1.0" standalone="no"?>
<!DOCTYPE svg PUBLIC "-//W3C//DTD SVG 20010904//EN"
 "http://www.w3.org/TR/2001/REC-SVG-20010904/DTD/svg10.dtd">
<svg version="1.0" xmlns="http://www.w3.org/2000/svg"
 width="500.000000pt" height="500.000000pt" viewBox="0 0 500.000000 500.000000"
 preserveAspectRatio="xMidYMid meet">
<metadata>
Created by potrace 1.14, written by Peter Selinger 2001-2017
</metadata>
<g transform="translate(0.000000,500.000000) scale(0.100000,-0.100000)"
fill="#000000" stroke="none">
<path d="M2329 4995 c-2 -1 -42 -6 -89 -10 -87 -7 -282 -42 -340 -60 -10 -3
-27 -7 -37 -9 -10 -2 -38 -10 -63 -17 -25 -7 -49 -13 -55 -15 -99 -23 -436
-178 -565 -260 -165 -105 -467 -351 -450 -366 3 -3 111 -33 240 -67 129 -35
276 -74 325 -88 50 -14 97 -26 105 -28 8 -2 49 -12 90 -24 41 -12 190 -52 330
-90 140 -38 383 -103 540 -145 157 -43 359 -97 450 -122 91 -24 248 -66 349
-94 102 -27 187 -48 189 -46 2 3 -40 161 -94 353 -53 191 -105 377 -115 413
-9 36 -34 124 -54 195 -58 206 -85 306 -102 370 -8 33 -18 63 -22 67 -16 18
-241 41 -427 44 -111 1 -203 1 -205 -1z"/>
<path d="M3100 4917 c0 -7 16 -69 35 -137 20 -69 42 -147 49 -175 25 -86 76
-268 86 -305 5 -19 17 -62 27 -95 9 -33 18 -64 19 -70 1 -5 27 -100 59 -210
31 -110 58 -207 60 -215 1 -8 26 -98 55 -198 28 -101 53 -191 55 -200 7 -26
20 -74 68 -247 74 -260 117 -417 132 -470 7 -27 30 -111 51 -185 20 -74 38
-137 40 -139 2 -2 236 228 520 512 l516 515 -47 119 c-89 223 -227 461 -378
650 -78 99 -280 301 -377 380 -258 207 -590 378 -897 462 -53 14 -73 16 -73 8z"/>
<path d="M596 4120 c-61 -67 -169 -219 -236 -330 -190 -314 -307 -665 -347
-1035 -15 -133 -6 -574 11 -604 2 -3 6 -28 10 -56 3 -27 10 -65 15 -83 5 -18
10 -33 9 -35 -1 -11 26 -128 32 -132 8 -5 1933 1919 1932 1931 -1 5 -139 46
-309 91 -169 46 -351 95 -403 109 -52 14 -151 41 -220 59 -69 19 -168 45 -220
60 -52 15 -120 33 -150 40 -30 8 -62 16 -71 20 -11 4 -28 -8 -53 -35z"/>
<path d="M3932 2188 c-852 -853 -969 -974 -950 -979 13 -4 100 -27 193 -53 94
-25 193 -53 220 -61 28 -8 59 -17 70 -20 11 -2 70 -18 130 -35 61 -17 117 -33
125 -34 8 -2 83 -23 165 -46 83 -23 157 -43 165 -45 8 -2 49 -13 90 -25 41
-12 84 -23 95 -25 11 -3 42 -11 69 -19 27 -8 53 -13 58 -9 20 12 175 213 234
303 182 278 330 660 370 956 3 27 8 52 10 55 20 34 25 500 6 654 -13 99 -58
318 -71 343 -5 9 -325 -305 -979 -960z"/>
<path d="M642 2216 l-513 -513 31 -84 c76 -207 248 -507 398 -693 67 -85 253
-273 337 -342 256 -213 549 -373 858 -469 48 -15 90 -25 94 -22 6 6 -10 78
-28 127 -5 14 -11 34 -13 45 -2 11 -25 101 -51 200 -26 99 -49 187 -50 195 -2
8 -19 74 -38 145 -72 275 -110 416 -154 585 -25 96 -61 234 -80 305 -19 72
-36 137 -38 145 -2 8 -34 134 -73 280 -38 146 -89 339 -112 430 -23 91 -45
168 -49 172 -4 4 -237 -223 -519 -506z"/>
<path d="M1624 1442 c3 -9 12 -44 20 -77 13 -55 41 -161 142 -544 19 -74 49
-186 65 -250 17 -64 46 -174 65 -246 19 -72 41 -159 50 -195 9 -36 20 -68 23
-72 7 -8 26 -12 171 -35 127 -21 533 -23 650 -5 41 7 89 14 105 17 17 2 40 6
51 9 12 2 37 7 56 10 65 10 280 76 396 122 247 96 542 273 712 428 131 120
135 125 120 130 -8 3 -148 42 -310 86 -483 133 -550 151 -660 182 -58 17 -112
31 -120 33 -16 3 -366 100 -710 196 -118 34 -223 62 -234 65 -10 2 -42 10 -70
18 -28 8 -76 22 -106 30 -30 8 -97 26 -147 40 -272 75 -274 76 -269 58z"/>
</g>
</svg>
