<svg id="Layer_1" data-name="Layer 1" xmlns="http://www.w3.org/2000/svg" xmlns:xlink="http://www.w3.org/1999/xlink" viewBox="0 0 455.39 520.3"><defs><style>.cls-1{fill:url(#linear-gradient);}.cls-2{fill:url(#linear-gradient-2);}.cls-3{fill:url(#linear-gradient-3);}.cls-4{fill:url(#linear-gradient-4);}</style><linearGradient id="linear-gradient" x1="347.55" y1="172.88" x2="-2419.28" y2="712.08" gradientUnits="userSpaceOnUse"><stop offset="0" stop-color="#60a5fa"/><stop offset="0.53" stop-color="#3e7ff1"/><stop offset="1" stop-color="#2563eb"/></linearGradient><linearGradient id="linear-gradient-2" x1="386.39" y1="372.21" x2="-2380.44" y2="911.42" xlink:href="#linear-gradient"/><linearGradient id="linear-gradient-3" x1="370.23" y1="254.56" x2="-2235.27" y2="762.32" xlink:href="#linear-gradient"/><linearGradient id="linear-gradient-4" x1="367" y1="272.71" x2="-2399.83" y2="811.91" xlink:href="#linear-gradient"/></defs><title>05-SVG File</title><polygon class="cls-1" points="212.44 236.24 176.01 280.65 69.62 152.69 143.91 152.69 212.44 236.24"/><polygon class="cls-2" points="385.82 447.69 314.89 447.69 243.05 361.26 279.25 317.73 385.82 447.69"/><polygon class="cls-3" points="455.39 131.76 455.39 520.29 0 520.29 0 483.98 419.08 483.98 419.08 152.69 227.69 41.96 36.31 152.69 36.31 411.38 69.63 411.38 69.57 447.69 0 447.69 0 131.76 227.69 0 455.39 131.76"/><polygon class="cls-4" points="385.77 152.69 140.5 447.69 69.57 447.69 311.48 152.69 385.77 152.69"/></svg>