<svg id="Layer_1" data-name="Layer 1" xmlns="http://www.w3.org/2000/svg" xmlns:xlink="http://www.w3.org/1999/xlink" viewBox="0 0 960 186.17"><defs><style>.cls-1{fill:url(#linear-gradient);}.cls-2{fill:url(#linear-gradient-2);}.cls-3{fill:url(#linear-gradient-3);}.cls-4{fill:url(#linear-gradient-4);}.cls-5{fill:url(#linear-gradient-5);}.cls-6{fill:url(#linear-gradient-6);}.cls-7{fill:url(#linear-gradient-7);}.cls-8{fill:url(#linear-gradient-8);}.cls-9{fill:url(#linear-gradient-9);}.cls-10{fill:url(#linear-gradient-10);}.cls-11{fill:url(#linear-gradient-11);}.cls-12{fill:url(#linear-gradient-12);}.cls-13{fill:url(#linear-gradient-13);}.cls-14{fill:url(#linear-gradient-14);}.cls-15{fill:url(#linear-gradient-15);}</style><linearGradient id="linear-gradient" x1="921.42" y1="61.86" x2="-68.58" y2="254.79" gradientUnits="userSpaceOnUse"><stop offset="0" stop-color="#60a5fa"/><stop offset="0.53" stop-color="#3e7ff1"/><stop offset="1" stop-color="#2563eb"/></linearGradient><linearGradient id="linear-gradient-2" x1="935.32" y1="133.18" x2="-54.68" y2="326.11" xlink:href="#linear-gradient"/><linearGradient id="linear-gradient-3" x1="927.2" y1="91.54" x2="-62.8" y2="284.47" xlink:href="#linear-gradient"/><linearGradient id="linear-gradient-4" x1="928.38" y1="97.58" x2="-61.62" y2="290.51" xlink:href="#linear-gradient"/><linearGradient id="linear-gradient-5" x1="903.59" y1="-29.63" x2="-86.41" y2="163.3" xlink:href="#linear-gradient"/><linearGradient id="linear-gradient-6" x1="906.21" y1="-16.15" x2="-83.78" y2="176.78" xlink:href="#linear-gradient"/><linearGradient id="linear-gradient-7" x1="905.69" y1="-18.82" x2="-84.3" y2="174.11" xlink:href="#linear-gradient"/><linearGradient id="linear-gradient-8" x1="911.06" y1="8.73" x2="-78.93" y2="201.66" xlink:href="#linear-gradient"/><linearGradient id="linear-gradient-9" x1="913.6" y1="21.75" x2="-76.4" y2="214.69" xlink:href="#linear-gradient"/><linearGradient id="linear-gradient-10" x1="916.82" y1="38.28" x2="-73.18" y2="231.21" xlink:href="#linear-gradient"/><linearGradient id="linear-gradient-11" x1="916.34" y1="35.8" x2="-73.66" y2="228.73" xlink:href="#linear-gradient"/><linearGradient id="linear-gradient-12" x1="918.25" y1="45.6" x2="-71.75" y2="238.53" xlink:href="#linear-gradient"/><linearGradient id="linear-gradient-13" x1="923.14" y1="70.68" x2="-66.86" y2="263.61" xlink:href="#linear-gradient"/><linearGradient id="linear-gradient-14" x1="926.57" y1="88.29" x2="-63.43" y2="281.22" xlink:href="#linear-gradient"/><linearGradient id="linear-gradient-15" x1="897.78" y1="-59.4" x2="-92.21" y2="133.53" xlink:href="#linear-gradient"/></defs><title>04-SVG File</title><polygon class="cls-1" points="873.07 84.53 860.04 100.42 821.97 54.63 848.55 54.63 873.07 84.53"/><polygon class="cls-2" points="935.11 160.19 909.73 160.19 884.02 129.26 896.98 113.69 935.11 160.19"/><polygon class="cls-3" points="960 47.14 960 186.17 8.96 186.17 0 173.17 947.01 173.17 947.01 54.63 878.53 15.01 810.05 54.63 810.05 147.19 821.97 147.19 821.95 160.19 797.06 160.19 797.06 47.14 878.53 0 960 47.14"/><polygon class="cls-4" points="935.09 54.63 858.14 147.19 847.33 160.19 821.95 160.19 832.61 147.19 908.51 54.63 935.09 54.63"/><path class="cls-5" d="M84.72,122.34c0-21.48,16.68-37.85,38.15-37.85,20.73,0,35.75,15.32,35.75,36.2a38,38,0,0,1-1.05,8.56l-53,.15c2.4,9,9.46,14.27,19.52,14.27,7.21,0,13.52-2.56,17.88-7.51l11.56,11.56c-7.21,8.26-17.57,12.47-29.29,12.47C101.55,160.19,84.72,144.27,84.72,122.34Zm19.83-7.66h35.14c-1.95-9-7.66-13.82-16.82-13.82C113.56,101,107,106.12,104.55,114.68Z"/><path class="cls-6" d="M164.17,146.82,175.89,135c5,5.55,11.56,8.41,19.67,8.41,6.31,0,9.77-1.81,9.77-5.41,0-11.87-36.5-4.36-36.5-30.94,0-13.82,10.66-22.83,27.93-22.83,12,0,22.08,4.36,28.39,12.62l-11.86,11.86A20.1,20.1,0,0,0,196.91,101c-5.85,0-9,1.8-9,5.11,0,10.66,36.35,4,36.35,30.94,0,14.27-11,23.13-28.54,23.13C183.25,160.19,171.38,155.23,164.17,146.82Z"/><path class="cls-7" d="M248.13,100.86h-17V83.59h17v-29H267.8v29h17v17.27h-17v59.33H248.13Z"/><path class="cls-8" d="M289.28,122.19c0-21.18,16.82-37.7,38.75-37.7,22.08,0,38.9,16.37,38.9,37.7,0,21.48-16.82,38-38.75,38S289.28,143.67,289.28,122.19Zm57.52.15C346.8,110.92,339,103,328,103s-18.62,8.11-18.62,19.38,7.66,19.52,18.62,19.52C339.14,141.86,346.8,133.75,346.8,122.34Z"/><path class="cls-9" d="M379.54,87.64h19.68V94.1c4.35-5.1,10.51-8,18.77-8,7.06,0,12.62,2.26,17.12,7.36L422.8,107.62a12.24,12.24,0,0,0-9.31-3.6c-8.56,0-14.27,5.25-14.27,16.07v40.1H379.54Z"/><path class="cls-10" d="M435.56,122.49c0-21.48,15-37.85,34.7-37.85,8.71,0,16.07,3.16,21.18,8.41V86.14H511v72.54H491.44v-6.9a28.89,28.89,0,0,1-21,8.41C450.58,160.19,435.56,144,435.56,122.49Zm56.93-.15c0-11.42-7.51-19.53-18.48-19.53-10.81,0-18.32,8.11-18.32,19.53S463.2,142,474,142C485,142,492.49,133.9,492.49,122.34Z"/><path class="cls-11" d="M539.05,100.86h-17V83.59h17v-29h19.67v29h17v17.27h-17v59.33H539.05Z"/><path class="cls-12" d="M585.6,65.9a11.12,11.12,0,1,1,11.12,11.26A10.95,10.95,0,0,1,585.6,65.9Zm1.21,21.74h19.82v72.55H586.81Z"/><path class="cls-13" d="M619.24,122.19c0-21.18,16.83-37.7,38.75-37.7,22.08,0,38.9,16.37,38.9,37.7,0,21.48-16.82,38-38.75,38S619.24,143.67,619.24,122.19Zm57.53.15C676.77,110.92,669,103,658,103s-18.62,8.11-18.62,19.38S647,141.86,658,141.86C669.11,141.86,676.77,133.75,676.77,122.34Z"/><path class="cls-14" d="M709.51,87.64h19.67v6.91a28.89,28.89,0,0,1,21-8.41c16.07,0,27.78,13.52,27.78,28.09v46H758.32V118.58c0-8.56-6-14.56-14.57-14.56s-14.57,6-14.57,14.56v41.61H709.51Z"/><path class="cls-15" d="M0,54.91H41.18c20.37,0,34.15,12.87,34.15,30.7,0,16.62-11.08,28-28.3,30.25l35.19,44.33H57.51l-33.7-44H20.37v44H0ZM20.37,71.53v28.75h19c10,0,15.72-5.39,15.72-14.37,0-8.09-5.69-14.38-15.72-14.38Z"/></svg>